  0
SECTION
  2
HEADER
  9
$ACADVER
  1
AC1009
  9
$INSBASE
 10
0.0
 20
0.0
 30
0.0
  9
$EXTMIN
 10
0.0
 20
0.0
 30
0.0
  9
$EXTMAX
 10
0.0
 20
0.0
 30
0.0
  0
ENDSEC
  0
SECTION
  2
TABLES
  0
TABLE
  2
VPORT
 70
0
  0
ENDTAB
  0
TABLE
  2
LTYPE
 70
1
  0
LTYPE
  2
CONTINUOUS
 70
0
  3
Solid line
 72
65
 73
0
 40
0.0
  0
ENDTAB
  0
TABLE
  2
LAYER
 70
1
  0
LAYER
  2
0
 70
64
 62
7
  6
continuous
  0
ENDTAB
  0
TABLE
  2
STYLE
 70
1
  0
STYLE
  2
STANDARD
 70
0
 40
0
 41
1.0
 50
0.0
 71
0
 42
1
 3
ARIAL.TTF
 4

  0
ENDTAB
  0
TABLE
  2
VIEW
 70
0
  0
ENDTAB
  0
ENDSEC
  0
SECTION
  2
BLOCKS
  0
BLOCK
  8
0
  2
FILLET
 70
0
 10
0.0
 20
0.0
 30
0.0
  3
FILLET
  0
LINE
  8
0
 62
0
 10
117.609674607
 20
281.822888519
 30
0.0
 11
-435.109674607
 21
281.822888519
 31
0.0
  0
ARC
  8
0
 62
0
 10
117.609674607
 20
294.522888519
 30
0.0
 40
12.7
 50
-90.0
 51
-0.0
  0
ARC
  8
0
 62
0
 10
-435.109674607
 20
294.522888519
 30
0.0
 40
12.7
 50
180.0
 51
-90.0
  0
LINE
  8
0
 62
0
 10
-435.109674607
 20
358.022888519
 30
0.0
 11
-130.309674607
 21
358.022888519
 31
0.0
  0
ARC
  8
0
 62
0
 10
-435.109674607
 20
345.322888519
 30
0.0
 40
12.7
 50
90.0
 51
180.0
  0
ARC
  8
0
 62
0
 10
5.39166311597e-13
 20
5.37636157898e-13
 30
0.0
 40
381.0
 50
104.261828146
 51
110.0
  0
LINE
  8
0
 62
0
 10
-447.809674607
 20
294.522888519
 30
0.0
 11
-447.809674607
 21
345.322888519
 31
0.0
  0
LINE
  8
0
 62
0
 10
-92.0058363337
 20
361.960630167
 30
0.0
 11
-93.8606362211
 21
369.257607868
 31
0.0
  0
LINE
  8
0
 62
0
 10
-71.6242627381
 20
374.207115094
 30
0.0
 11
-92.0058363337
 21
361.960630167
 31
0.0
  0
ARC
  8
0
 62
0
 10
5.39166311597e-13
 20
5.37636157898e-13
 30
0.0
 40
381.0
 50
100.817383702
 51
100.835517216
  0
LINE
  8
0
 62
0
 10
-70.0927847547
 20
366.834531139
 30
0.0
 11
-71.5058265186
 21
374.229764682
 31
0.0
  0
LINE
  8
0
 62
0
 10
130.309674607
 20
357.647325146
 30
0.0
 11
130.309674607
 21
294.522888519
 31
0.0
  0
LINE
  8
0
 62
0
 10
-49.0122527009
 20
377.83435403
 30
0.0
 11
-70.0927847547
 21
366.834531139
 31
0.0
  0
LINE
  8
0
 62
0
 10
130.309674607
 20
357.647325146
 30
0.0
 11
107.559111775
 21
357.647325146
 31
0.0
  0
ARC
  8
0
 62
0
 10
5.39166311597e-13
 20
5.37636157898e-13
 30
0.0
 40
381.0
 50
97.3729392576
 51
97.3910727719
  0
LINE
  8
0
 62
0
 10
107.559111775
 20
357.647325146
 30
0.0
 11
109.72745931
 21
364.857348389
 31
0.0
  0
LINE
  8
0
 62
0
 10
-47.9264912436
 20
370.383076216
 30
0.0
 11
-48.8926696308
 21
377.849846971
 31
0.0
  0
ARC
  8
0
 62
0
 10
5.39166311597e-13
 20
5.37636157898e-13
 30
0.0
 40
381.0
 50
73.2618281465
 51
73.2799616608
  0
LINE
  8
0
 62
0
 10
-26.2231637017
 20
380.096495229
 30
0.0
 11
-47.9264912436
 21
370.383076216
 31
0.0
  0
LINE
  8
0
 62
0
 10
109.611980286
 20
364.892057707
 30
0.0
 11
85.8771099215
 21
363.463469556
 31
0.0
  0
ARC
  8
0
 62
0
 10
5.39166311597e-13
 20
5.37636157898e-13
 30
0.0
 40
381.0
 50
93.9284948131
 51
93.9466283275
  0
LINE
  8
0
 62
0
 10
85.8771099215
 20
363.463469556
 30
0.0
 11
87.6083572006
 21
370.790743882
 31
0.0
  0
LINE
  8
0
 62
0
 10
-25.5870415756
 20
372.593444674
 30
0.0
 11
-26.1028658289
 21
380.104775549
 31
0.0
  0
ARC
  8
0
 62
0
 10
5.39166311597e-13
 20
5.37636157898e-13
 30
0.0
 40
381.0
 50
76.7062725909
 51
76.7244061053
  0
LINE
  8
0
 62
0
 10
-3.33933164637
 20
380.985365682
 30
0.0
 11
-25.5870415756
 21
372.593444674
 31
0.0
  0
LINE
  8
0
 62
0
 10
87.4910014263
 20
370.818452439
 30
0.0
 11
63.8848381117
 21
367.966437559
 31
0.0
  0
ARC
  8
0
 62
0
 10
5.39166311597e-13
 20
5.37636157898e-13
 30
0.0
 40
381.0
 50
90.4840503687
 51
90.5021838831
  0
LINE
  8
0
 62
0
 10
63.8848381117
 20
367.966437559
 30
0.0
 11
65.1727302201
 21
375.384489871
 31
0.0
  0
LINE
  8
0
 62
0
 10
-3.15514713071
 20
373.457650553
 30
0.0
 11
-3.21875360151
 21
380.986403465
 31
0.0
  0
ARC
  8
0
 62
0
 10
5.39166311597e-13
 20
5.37636157898e-13
 30
0.0
 40
381.0
 50
80.1507170353
 51
80.1688505497
  0
LINE
  8
0
 62
0
 10
19.556565257
 20
380.497753943
 30
0.0
 11
-3.15514713071
 21
373.457650553
 31
0.0
  0
LINE
  8
0
 62
0
 10
65.0539216969
 20
375.405097557
 30
0.0
 11
41.661753389
 21
371.139960143
 31
0.0
  0
ARC
  8
0
 62
0
 10
5.39166311597e-13
 20
5.37636157898e-13
 30
0.0
 40
381.0
 50
87.0396059242
 51
87.0577394386
  0
LINE
  8
0
 62
0
 10
41.661753389
 20
371.139960143
 30
0.0
 11
42.501637233
 21
378.621989367
 31
0.0
  0
LINE
  8
0
 62
0
 10
19.2881467122
 20
372.972571521
 30
0.0
 11
19.6769878312
 21
380.491545438
 31
0.0
  0
ARC
  8
0
 62
0
 10
5.39166311597e-13
 20
5.37636157898e-13
 30
0.0
 40
381.0
 50
83.5951614798
 51
83.6132949942
  0
LINE
  8
0
 62
0
 10
42.3818052106
 20
378.635421728
 30
0.0
 11
19.2881467122
 21
372.972571521
 31
0.0
  0
CIRCLE
  8
0
 62
0
 10
-219.209674607
 20
319.922888519
 30
0.0
 40
19.812
  0
CIRCLE
  8
0
 62
0
 10
-409.709674607
 20
319.922888519
 30
0.0
 40
19.812
  0
ENDBLK
  0
ENDSEC
  0
SECTION
  2
ENTITIES
  0
INSERT
  2
FILLET
  8
0
 62
0
 10
0.0
 20
0.0
 30
0.0
  0
ENDSEC
  0
EOF
