  0
SECTION
  2
HEADER
  9
$ACADVER
  1
AC1009
  9
$INSBASE
 10
0.0
 20
0.0
 30
0.0
  9
$EXTMIN
 10
0.0
 20
0.0
 30
0.0
  9
$EXTMAX
 10
0.0
 20
0.0
 30
0.0
  0
ENDSEC
  0
SECTION
  2
TABLES
  0
TABLE
  2
VPORT
 70
0
  0
ENDTAB
  0
TABLE
  2
LTYPE
 70
1
  0
LTYPE
  2
CONTINUOUS
 70
0
  3
Solid line
 72
65
 73
0
 40
0.0
  0
ENDTAB
  0
TABLE
  2
LAYER
 70
1
  0
LAYER
  2
0
 70
64
 62
7
  6
continuous
  0
ENDTAB
  0
TABLE
  2
STYLE
 70
1
  0
STYLE
  2
STANDARD
 70
0
 40
0
 41
1.0
 50
0.0
 71
0
 42
1
 3
ARIAL.TTF
 4

  0
ENDTAB
  0
TABLE
  2
VIEW
 70
0
  0
ENDTAB
  0
ENDSEC
  0
SECTION
  2
BLOCKS
  0
BLOCK
  8
0
  2
SKETCH009
 70
0
 10
0.0
 20
0.0
 30
0.0
  3
SKETCH009
  0
LINE
  8
0
 62
7
 10
<<<<<<< HEAD
-2.86790582736e-11
 20
-254.0
 30
0.0
 11
0.0
 21
0.0
=======
101.608175543
 20
-1.09291804192e-11
 30
0.0
 11
101.608175543
 21
-121.210312099
>>>>>>> 23cf114b5d3e11a5dacbff6ee8f6fb83000cbb0b
 31
0.0
  0
LINE
  8
0
 62
7
 10
<<<<<<< HEAD
-1.83625377668e-32
 20
-1.62630325873e-19
 30
0.0
 11
101.6
 21
-1.1561863083e-11
 31
0.0
=======
50.8081755434
 20
-121.210312099
 30
0.0
 40
50.8
 50
-40.0
 51
-0.0
>>>>>>> 23cf114b5d3e11a5dacbff6ee8f6fb83000cbb0b
  0
LINE
  8
0
 62
7
 10
<<<<<<< HEAD
101.6
 20
-1.1561863083e-11
=======
0.00817554341876
 20
5.42443231787e-13
>>>>>>> 23cf114b5d3e11a5dacbff6ee8f6fb83000cbb0b
 30
0.0
 11
101.608175543
 21
<<<<<<< HEAD
-132.917834992
=======
-1.09291804192e-11
>>>>>>> 23cf114b5d3e11a5dacbff6ee8f6fb83000cbb0b
 31
0.0
  0
LINE
  8
0
 62
7
 10
<<<<<<< HEAD
101.6
 20
-132.917834992
 30
0.0
 11
-2.87059265247e-11
 21
-254.0
=======
89.7232332538
 20
-153.863922671
 30
0.0
 11
0.0081755433893
 21
-260.782165007
>>>>>>> 23cf114b5d3e11a5dacbff6ee8f6fb83000cbb0b
 31
0.0
  0
POLYLINE
  8
0
 62
7
 70
0
 66
1
 10
<<<<<<< HEAD
0.0
 20
0.0
 30
0.0
  0
VERTEX
  8
0
 10
69.85
 20
-101.6
 30
0.0
  0
VERTEX
  8
0
 10
74.7805028092
 20
-100.950886991
 30
0.0
  0
VERTEX
  8
0
 10
79.375
 20
-99.0477839421
 30
0.0
  0
VERTEX
  8
0
 10
83.3203841816
 20
-96.0203841816
 30
=======
0.00817554338932
 20
-260.782165007
 30
0.0
 11
0.00817554341876
 21
5.68434188608e-13
 31
>>>>>>> 23cf114b5d3e11a5dacbff6ee8f6fb83000cbb0b
0.0
  0
VERTEX
  8
0
 10
86.3477839421
 20
-92.075
 30
0.0
  0
VERTEX
  8
0
 10
88.2508869908
 20
-87.4805028092
 30
0.0
  0
VERTEX
  8
0
 10
88.9
 20
-82.55
 30
0.0
  0
VERTEX
  8
0
 10
88.2508869908
 20
-77.6194971908
 30
0.0
  0
VERTEX
  8
0
 10
86.3477839421
 20
-73.025
 30
0.0
  0
VERTEX
  8
0
 10
83.3203841816
 20
-69.0796158184
 30
0.0
  0
VERTEX
  8
0
 10
79.375
 20
-66.0522160579
 30
0.0
  0
VERTEX
  8
0
 10
74.7805028092
 20
-64.1491130092
 30
0.0
  0
VERTEX
  8
0
 10
69.8581755434
 20
-63.5
 30
0.0
  0
VERTEX
  8
0
 10
64.9194971908
 20
-64.1491130092
 30
0.0
  0
VERTEX
  8
0
 10
60.325
 20
-66.0522160579
 30
0.0
  0
VERTEX
  8
0
 10
56.3796158184
 20
-69.0796158184
 30
0.0
  0
VERTEX
  8
0
 10
53.3522160579
 20
-73.025
 30
0.0
  0
VERTEX
  8
0
 10
51.4491130092
 20
-77.6194971908
 30
0.0
  0
VERTEX
  8
0
 10
50.8
 20
-82.55
 30
0.0
  0
VERTEX
  8
0
 10
51.4491130092
 20
-87.4805028092
 30
0.0
  0
VERTEX
  8
0
 10
53.3522160579
 20
-92.075
 30
0.0
  0
VERTEX
  8
0
 10
56.3796158184
 20
-96.0203841816
 30
0.0
  0
VERTEX
  8
0
 10
60.325
 20
-99.0477839421
 30
0.0
  0
VERTEX
  8
0
 10
64.9194971908
 20
-100.950886991
 30
0.0
  0
VERTEX
  8
0
 10
69.85
 20
-101.6
 30
0.0
  0
SEQEND
  8
0
  0
POLYLINE
  8
0
 62
7
 70
0
 66
1
 10
<<<<<<< HEAD
0.0
 20
0.0
 30
0.0
  0
VERTEX
  8
0
 10
64.2893956027
 20
-137.297561224
 30
0.0
  0
VERTEX
  8
0
 10
68.6334467772
 20
-135.205576435
 30
0.0
  0
VERTEX
  8
0
 10
69.7063388148
 20
-130.504929284
 30
0.0
  0
VERTEX
  8
0
 10
66.7001621282
 20
-126.735302951
 30
0.0
  0
VERTEX
  8
0
 10
61.8786290772
 20
-126.735302951
 30
0.0
  0
VERTEX
  8
0
 10
58.8724523906
 20
-130.504929284
 30
0.0
  0
VERTEX
  8
0
 10
59.9453444282
 20
-135.205576435
=======
75.0707602064
 20
-38.0230696979
>>>>>>> 23cf114b5d3e11a5dacbff6ee8f6fb83000cbb0b
 30
0.0
  0
VERTEX
  8
0
 10
64.2893956027
 20
-137.297561224
 30
0.0
  0
SEQEND
  8
0
  0
POLYLINE
  8
0
 62
7
 70
0
 66
1
 10
0.0
 20
0.0
 30
0.0
  0
VERTEX
  8
0
 10
<<<<<<< HEAD
75.4106043973
 20
-38.9149387764
=======
64.6455908804
 20
-127.076930302
>>>>>>> 23cf114b5d3e11a5dacbff6ee8f6fb83000cbb0b
 30
0.0
  0
VERTEX
  8
0
 10
79.7546555717
 20
-36.822953988
 30
0.0
  0
VERTEX
  8
0
 10
80.8275476093
 20
-32.1223068371
 30
0.0
  0
VERTEX
  8
0
 10
77.8213709227
 20
-28.3526805041
 30
0.0
  0
VERTEX
  8
0
 10
72.9998378718
 20
-28.3526805041
 30
0.0
  0
VERTEX
  8
0
 10
69.9936611852
 20
-32.1223068371
 30
0.0
  0
VERTEX
  8
0
 10
71.0665532228
 20
-36.822953988
 30
0.0
  0
VERTEX
  8
0
 10
75.4106043973
 20
-38.9149387764
 30
0.0
  0
SEQEND
  8
0
  0
ENDBLK
  0
ENDSEC
  0
SECTION
  2
ENTITIES
  0
INSERT
  2
SKETCH009
  8
0
 62
7
 10
0.0
 20
0.0
 30
0.0
  0
ENDSEC
  0
EOF
